<svg id="Layer_1" data-name="Layer 1" xmlns="http://www.w3.org/2000/svg" width="700" height="700" viewBox="0 0 700 700"><title>Ting_Homepage_Illustration_Chooseyourplan_Large</title><path d="M501.43,275.76c11.62,10.87,17.32,27.33,29.81,37.23,16.46,13,34.54,12.37,53.48,17.76,34.75,9.89,62.84,21.19,72.74,60.15,20.23,79.3-75.76,124.39-139.57,128.8-74.89,5.16-127.62-29.38-132.67-108C382.42,364.75,429.12,208.29,501.43,275.76Z" fill="#9feaf7"/><path d="M140.31,169.12c-77.8,1.19-142.15,62.09-84.69,134.4,27.44,34.54,49.61,55.09,68.65,97,17.22,37.66,42.08,79.31,88.78,82.43,95.87,6.56,84.15-148.28,70.59-207.46-6.57-28.84-7.86-59.4-30.35-77.26C225.1,175.9,174.74,168.69,140.31,169.12Z" fill="#9feaf7"/><path d="M446.34,563.71H247.7a14.65,14.65,0,0,1-14.64-14.63V143.73c0-15.71,15.71-14.53,15.71-14.53H461.62a14.48,14.48,0,0,1,13.45,14.53V543.16a14.08,14.08,0,0,1-.11,2.15l.11,2.58s2.36,15.71-15.71,15.71h-13Z" fill="#fff"/><path d="M86,451.51a1.21,1.21,0,0,1-.87-.37l-5.38-5.49-5.37-5.37a1.21,1.21,0,0,1-.31-1.17,1.18,1.18,0,0,1,.86-.85l15-3.88a1.21,1.21,0,0,1,1.17.33,1.18,1.18,0,0,1,.29,1.18l-2.14,7.31-2.05,7.42a1.21,1.21,0,0,1-.86.85A1.54,1.54,0,0,1,86,451.51Zm-8.41-11.45L81.44,444l3.92,4,1.48-5.4v0l1.55-5.28Z" fill="#fff"/><path d="M657.67,421.81a8.66,8.66,0,0,1-8.74-8.75,8.75,8.75,0,0,1,8.74-8.74,8.66,8.66,0,0,1,8.75,8.74A8.77,8.77,0,0,1,657.67,421.81Zm0-15.07a6.33,6.33,0,0,0-6.32,6.32,6.25,6.25,0,0,0,6.32,6.32,6.32,6.32,0,0,0,6.32-6.32A6.18,6.18,0,0,0,657.67,406.74Z" fill="#1fc8fc"/><path d="M50,198.19c-1.86-1.33-1.61-3.38-1.42-5,.22-1.8.28-2.86-.86-3.71l1.44-1.94c2.33,1.72,2,4.16,1.83,5.94-.2,1.61-.21,2.31.42,2.76Z" fill="#ff8f6c"/><path d="M61.26,206.26c-1.85-1.33-1.6-3.38-1.41-5,.21-1.8.28-2.86-.86-3.71l1.44-1.94c2.32,1.72,2,4.16,1.82,5.94-.19,1.61-.2,2.31.43,2.77Z" fill="#ff8f6c"/><path d="M52,198.87a3.4,3.4,0,0,1-2.05-.68l1.41-2c.62.45,1.28.2,2.75-.52s3.83-1.89,6.17-.23l-1.4,2c-1.11-.79-2.08-.37-3.7.43A7.47,7.47,0,0,1,52,198.87Z" fill="#ff8f6c"/><path d="M63.32,206.94a3.44,3.44,0,0,1-2.06-.68l1.42-2c.62.44,1.28.19,2.75-.53s3.83-1.89,6.17-.23l-1.4,2c-1.11-.79-2.08-.37-3.7.43A7.52,7.52,0,0,1,63.32,206.94Z" fill="#ff8f6c"/><path d="M173,123.14a5.35,5.35,0,0,1-1.05-.11,4.74,4.74,0,0,1-3.08-2.25,5.17,5.17,0,0,1-.64-3.74,4.72,4.72,0,0,1,2.25-3.09,5.2,5.2,0,0,1,3.73-.63,4.69,4.69,0,0,1,3.09,2.25,5,5,0,0,1-1.58,6.8l0,0A5.36,5.36,0,0,1,173,123.14Zm2.07-1.79h0Zm-1.9-5.72a2.91,2.91,0,0,0-1.46.41,2.28,2.28,0,0,0-1.12,1.51,2.82,2.82,0,0,0,.36,2,2.31,2.31,0,0,0,1.52,1.11,2.77,2.77,0,0,0,2-.35,2.58,2.58,0,0,0,.76-3.52,2.28,2.28,0,0,0-1.51-1.11A2.32,2.32,0,0,0,173.16,115.63Z" fill="#fff"/><path d="M382,153.72H328.62a1.82,1.82,0,1,1,0-3.63H382a1.82,1.82,0,0,1,0,3.63Z" fill="#d1f0fc"/><rect x="251.14" y="169.77" width="205.74" height="350.9" fill="#fff2d6"/><rect x="251.14" y="169.77" width="205.74" height="350.9" fill="#c7eef9"/><path d="M456.88,522.48H251.14a1.81,1.81,0,0,1-1.81-1.81V169.77a1.82,1.82,0,0,1,1.81-1.82H456.88a1.83,1.83,0,0,1,1.82,1.82v350.9A1.82,1.82,0,0,1,456.88,522.48ZM253,518.85H455.07V171.58H253Z" fill="#fff"/><path d="M443.22,280.17H264.91a3.58,3.58,0,0,1-3.55-3.55V239.39a3.58,3.58,0,0,1,3.55-3.55H443.32a3.58,3.58,0,0,1,3.55,3.55v37.44A3.72,3.72,0,0,1,443.22,280.17Z" fill="#fff"/><circle cx="286.87" cy="258.65" r="13.77" fill="#c7eef9"/><path d="M554.05,323.21s-7.53-2.15-17.22,11.84c0,0-5.27,17.22,4.31,21.52,0,0-3.23,7.53-8.61,7.53,0,0,5.27,10.76,17.21,6.46l4.85-8.07L551.36,356l2.15-6.45s0,4.3,7.53,1.07c0,0,5.28-7.53-2.15-7.53l-1.08-3.23s-10.76-1.07-3.22-9.68Z" fill="#fff"/><path d="M515.31,288.78s-8.61-3.23-12.91,4.3c0,0,2.15,49.39,36.58,67.69l2.16-5.28s-13.45-7-2.69-21C538.45,334.51,512.73,302.12,515.31,288.78Z" fill="#fff"/><polygon points="513.16 288.78 518.65 274.79 517.57 269.52 513.16 267.37 510.04 267.37 500.35 290.93 503.58 290.93 513.16 288.78" fill="#fff"/><path d="M562.66,321.06s-7.54-5.27-8.61,3.23l1.07,5.27-2.79,3.77,1.29,5.05,3.55.87,1.08,4.3h3.22l2,3.23-2.15,4.3L553.83,350l-2.36,5.05,1.29,7.86,1.07,3.23-4.3,3.23v4.3l2.15,2.15v4.31l2.15,2.15H556l1.07,5.27,5.27,2.15,6.46-4.3,7.53-1.08,2.16-6.45-3.77-3.77,2.15-6.46-8.61-5.27,2.15-3.23s10.77-1.07,6.46-12.91c0,0,7.53-2.15,5.27-10.76,0,0-5.27-4.3-8.6-4.3l2.15-3.23s0-11.84-9.69-6.46Z" fill="#fff"/><path d="M535.86,454.28s13.88,51.54,33.25,81.67c0,0,12.92,0,19.37-13.88l-25.82-67.69s0-21.52-8.61-34.32c0,0-22.49,17.21-42.94,0,0,0-18.29,34.32,7.54,125.68,0,0,19.37-1.08,21.52-6.46L530.05,486Z" fill="#1fc8fc"/><path d="M584.07,528.09,593.43,539s-8,15-14.2,17.11l-4.31,1.08s1.3-13.24,3.12-19l-2.36-3.77Z" fill="#fff"/><path d="M574.24,557.94l.08-.85c0-.54,1.28-13,3.07-18.9l-2.52-4,9.29-6.91,10,11.61-.19.37c-.33.61-8.15,15.19-14.54,17.39Zm2.25-23.45,2.22,3.52-.09.27c-1.52,4.84-2.69,15.05-3,18.07l3.47-.87c5.37-1.85,12.36-14.16,13.62-16.44L584,528.91Z" fill="#477e98"/><path d="M538.34,542.73l1.07,19.47-25.61,3.23s.87-14.31,13.89-14.42l-.87-5.27Z" fill="#fff"/><path d="M513.16,566.12l0-.72c0-.15,1-14.36,13.78-15l-.84-5.14L538.9,542l1.15,20.78Zm14.35-19.94.89,5.43h-.71a12,12,0,0,0-11.29,6.92,19.79,19.79,0,0,0-1.91,6.2l24.29-3.07-1-18.17Z" fill="#477e98"/><path d="M516,567a3.8,3.8,0,0,1-3.17-1.61,3.62,3.62,0,0,1-.3-3.71,21.33,21.33,0,0,1,13.3-11.2l-.74-4.44a1.51,1.51,0,1,1,3-.5l1,5.81a1.51,1.51,0,0,1-1.22,1.74c-.09,0-8.76,1.72-12.57,9.91a.61.61,0,0,0,.05.65.77.77,0,0,0,.77.33l22.14-3.72-2.69-18.12a1.51,1.51,0,0,1,3-.45l2.91,19.59a1.51,1.51,0,0,1-1.25,1.71l-23.67,4Z" fill="#477e98"/><path d="M577,558.29a4.39,4.39,0,0,1-1.76-.38,4.17,4.17,0,0,1-2.52-3.4c-.65-7.27,2.74-13.8,4.17-16.2L574.17,535a1.51,1.51,0,0,1,2.37-1.88l3.33,4.2a1.5,1.5,0,0,1,.07,1.79c-.05.08-5,7.32-4.26,15.15a1.22,1.22,0,0,0,.74.94,1.19,1.19,0,0,0,1.16-.09c2.61-1.82,11-8.1,13.63-15.09l-7.93-10.77a1.51,1.51,0,0,1,2.44-1.79l8.39,11.41a1.5,1.5,0,0,1,.23,1.34c-2.56,8.19-12.13,15.36-15,17.37A4,4,0,0,1,577,558.29Z" fill="#477e98"/><path d="M580.32,540.77a5.53,5.53,0,0,1-2.32-.46,1.51,1.51,0,0,1,1.35-2.71c.19.08,3.28,1.29,7.48-4.48a1.51,1.51,0,0,1,2.45,1.78C585.73,539.78,582.42,540.77,580.32,540.77Z" fill="#477e98"/><path d="M531.54,555.47a11.55,11.55,0,0,1-7-2.1,1.51,1.51,0,0,1,1.91-2.35c.19.14,4.21,3.18,11.22-.09a1.51,1.51,0,1,1,1.28,2.74A17.54,17.54,0,0,1,531.54,555.47Z" fill="#477e98"/><path d="M545.15,357.84a13,13,0,0,1-9.61-4.73c-2.93-3.52-3.63-8.13-2-13,3.56-10.78,14.13-18,14.58-18.3a1.51,1.51,0,1,1,1.69,2.51c-.1.07-10.17,6.95-13.4,16.76-1.68,4.88-.15,8.16,1.42,10.05,2.09,2.52,5.47,4,8.22,3.58a1.51,1.51,0,1,1,.44,3A8.93,8.93,0,0,1,545.15,357.84Z" fill="#477e98"/><path d="M557,341.52a5.73,5.73,0,0,1-2-.4,6.33,6.33,0,0,1-3.84-4.32c-.73-2.79.58-5.66,2.26-7.72a8.1,8.1,0,0,1,.64-8.89,6.81,6.81,0,0,1,5.19-2.26,6.18,6.18,0,0,1,4.76,2,1.51,1.51,0,0,1-2.31,2,3.18,3.18,0,0,0-2.45-1,3.82,3.82,0,0,0-2.88,1.2,5.12,5.12,0,0,0,.15,6.16,1.51,1.51,0,0,1-.13,2c-1.83,1.83-2.73,4.09-2.29,5.76a3.31,3.31,0,0,0,2,2.23,2.06,2.06,0,0,0,1.92-.1,1.52,1.52,0,0,1,2.1.42,1.5,1.5,0,0,1-.42,2.1A4.76,4.76,0,0,1,557,341.52Z" fill="#477e98"/><path d="M558.33,353.08a7,7,0,0,1-5.75-3,1.51,1.51,0,1,1,2.51-1.68,4,4,0,0,0,3.78,1.61,3.54,3.54,0,0,0,2.83-2.72,3.08,3.08,0,0,0-.23-1.88,1.75,1.75,0,0,0-1.9-.62,1.52,1.52,0,0,1-1.36-2.71,4.76,4.76,0,0,1,5.78,1.65,1.48,1.48,0,0,1,.13.21,6,6,0,0,1,.55,3.91,6.5,6.5,0,0,1-5.31,5.14A5.88,5.88,0,0,1,558.33,353.08Z" fill="#477e98"/><path d="M564.76,365.48a7.55,7.55,0,0,1-5.06-2,5.4,5.4,0,0,1-1.94.84,6.29,6.29,0,0,1-5.06-1.06,7.34,7.34,0,0,1-1.79-8.28,1.5,1.5,0,0,1,1.93-.91,1.52,1.52,0,0,1,.91,1.94,4.45,4.45,0,0,0,.87,4.91,3.27,3.27,0,0,0,2.49.44,1.87,1.87,0,0,0,1.3-.87,1.51,1.51,0,0,1,2.63-.08,4.41,4.41,0,0,0,4.35,2,4.21,4.21,0,0,0,3.08-3.5,1.51,1.51,0,0,1,1.63-1.36c2.13.16,5.86-1.6,6.65-3.58s.53-5.93-1-7.21a1.51,1.51,0,0,1-.45-1.64,1.53,1.53,0,0,1,1.35-1,3.71,3.71,0,0,0,2.69-1.33,6.69,6.69,0,0,0,1.37-4.89,5.42,5.42,0,0,0-2-3.71,6,6,0,0,0-4.29-1.47,1.51,1.51,0,0,1-1.07-2.69A4.68,4.68,0,0,0,575,326.8a4.87,4.87,0,0,0-.93-3.51,4.52,4.52,0,0,0-3.16-1.6,5,5,0,0,0-3.54,1,1.52,1.52,0,0,1-1.88-2.38,8.07,8.07,0,0,1,5.69-1.62,7.56,7.56,0,0,1,5.26,2.73,7.9,7.9,0,0,1,1.57,5.72,8.28,8.28,0,0,1-.84,2.84,9.49,9.49,0,0,1,3.5,1.86,8.51,8.51,0,0,1,3.09,5.78,9.62,9.62,0,0,1-2.11,7.13,6.89,6.89,0,0,1-2.37,1.78,12.05,12.05,0,0,1,.29,8.56c-1.17,2.92-5.16,5.11-8.35,5.45a7.36,7.36,0,0,1-5.19,4.83A6.64,6.64,0,0,1,564.76,365.48Z" fill="#477e98"/><path d="M573.11,386.82a7.26,7.26,0,0,1-4.64-1.65,1.51,1.51,0,1,1,1.94-2.32,4.31,4.31,0,0,0,5.06.23,4.83,4.83,0,0,0,2-4.87,5,5,0,0,0-4-3.36,1.51,1.51,0,0,1-1.3-1.29A1.53,1.53,0,0,1,573,372a3.66,3.66,0,0,0,2-2.32,3.84,3.84,0,0,0-.3-3.12,1.71,1.71,0,0,0-1.17-.8,1.51,1.51,0,1,1-1.56-2.59c1.87-1.12,4.06,0,5.25,1.72a6.79,6.79,0,0,1,.66,5.71,7.08,7.08,0,0,1-1.21,2.29,7.36,7.36,0,0,1,.49,12.73A7.19,7.19,0,0,1,573.11,386.82Z" fill="#477e98"/><path d="M523.26,547a27.55,27.55,0,0,1-4.9-.39,1.51,1.51,0,0,1-1.18-1.12C491.69,444.24,509.67,419,510.45,418a1.51,1.51,0,0,1,2.41,1.82c-.22.31-17.61,25.6,7,124,2.76.31,11.14.77,18.22-4.06l-9.21-54a1.93,1.93,0,0,1,0-.48l4.73-31.64a1.52,1.52,0,0,1,3,.45l-4.7,31.4,9.32,54.74a1.52,1.52,0,0,1-.59,1.47A29.07,29.07,0,0,1,523.26,547Z" fill="#477e98"/><path d="M570,537.25a1.52,1.52,0,0,1-1.22-.63c-24.45-33.78-34.06-81.9-34.16-82.38a1.51,1.51,0,0,1,3-.58c.1.47,9.42,47.1,33,80.28,3.28-1.19,13.49-5.37,16.4-12.15-2.82-6.14-24.3-53.58-26.76-75.85-2.15-20-8.76-25.85-8.83-25.9a1.52,1.52,0,0,1,1.93-2.34c.3.26,7.6,6.45,9.9,27.91,2.53,22.84,26.53,75,26.77,75.5a1.48,1.48,0,0,1,0,1.15c-3.55,9.85-18.93,14.71-19.59,14.92A1.76,1.76,0,0,1,570,537.25Z" fill="#477e98"/><path d="M529.19,455.46a1.51,1.51,0,1,1,0-3h0a25.37,25.37,0,0,0,17.47-8.84,1.51,1.51,0,0,1,2.29,2A27.94,27.94,0,0,1,529.19,455.46Z" fill="#477e98"/><path d="M532.63,357.33a1.56,1.56,0,0,1-.93-.32c-27-21.26-30.77-61.35-30.92-63a1.53,1.53,0,0,1,.25-1c4.14-6.25,11.28-6.24,14.47-5.36a1.53,1.53,0,0,1,1.09,1.23c3.44,22.63,21.62,43.46,21.81,43.67a1.51,1.51,0,1,1-2.27,2c-.76-.86-18.42-21.07-22.36-44.16a10.17,10.17,0,0,0-9.92,3.86c.55,4.84,5.4,41.24,29.72,60.39a1.51,1.51,0,0,1-.94,2.7Z" fill="#477e98"/><path d="M513.16,290.4a1.35,1.35,0,0,1-.44-.07,1.51,1.51,0,0,1-1-1.88,60.65,60.65,0,0,1,5-11.75,5,5,0,0,0,0-5.33c-1.14-2.05-3.06-3.14-4-3.14a1.51,1.51,0,1,1,0-3c2.33,0,5.12,2,6.64,4.68a8,8,0,0,1-.08,8.38,59,59,0,0,0-4.68,11.05A1.51,1.51,0,0,1,513.16,290.4Z" fill="#477e98"/><path d="M543.16,349.16a7.42,7.42,0,0,1-6-3.05,1.51,1.51,0,0,1,.42-2.1,1.53,1.53,0,0,1,2.09.41,4.41,4.41,0,0,0,4.84,1.54,1.51,1.51,0,0,1,.73,2.93A8.66,8.66,0,0,1,543.16,349.16Z" fill="#477e98"/><circle cx="547.48" cy="337.09" r="2.26" fill="#477e98"/><path d="M473.45,314.6s-12.91-3.22-10.76,12.92c0,0,21.52,28,52.62,50.46,0,0-8.61,5.28-3.23,17.22,0,0-3.23,13.88-1.07,23.57,0,0,15,17.21,41.86,0,0,0-6.46-21.53,1.07-37.67l-2.15-6.45-2.15-4.31A14.4,14.4,0,0,1,533,364.43C533.17,364.64,492.28,346.35,473.45,314.6Z" fill="#fff"/><polygon points="471.3 314.6 468.07 303.84 449.89 293.08 446.66 300.62 449.89 310.3 459.46 312.45 463.77 318.91 471.3 314.6" fill="#fff"/><path d="M529.87,427.92a26.23,26.23,0,0,1-19.62-8.32,1.71,1.71,0,0,1-.3-.64c-2.13-10.48.34-20.86,1.05-23.48-5-9.73-.64-15.81,2.3-18.5C497.41,368.51,461,334.91,461,324.07a10.19,10.19,0,0,1,3.17-7.92c3.91-3.54,10-3,10.23-2.94a1.53,1.53,0,0,1,1.11.66c14.68,22,31.94,33.41,45.82,42.55l4,2.66c4.16,2.79,7.62,3.72,10,2.68,3.14-1.35,3.9-5.71,3.9-5.75a1.51,1.51,0,0,1,3,.47c0,.25-1,6-5.66,8-3.45,1.5-7.79.51-12.93-2.94q-1.92-1.29-4-2.64c-13.23-8.72-31.31-20.64-46.24-42.76-1.48,0-5,.16-7.23,2.22a7.3,7.3,0,0,0-2.16,5.66c0,4.17,8.29,14.75,21.13,26.95,12.16,11.56,25.17,21.54,31.64,24.28a1.5,1.5,0,0,1,.92,1.31,1.52,1.52,0,0,1-.78,1.41c-.37.21-9.11,5.29-2.95,16.56a1.54,1.54,0,0,1,.12,1.17c0,.11-3.33,11.26-1.23,22.23,1.87,2.09,14.47,14.63,37.73,0-.82-3.31-2.69-13.67.26-31.22a1.53,1.53,0,0,1,1.75-1.24,1.51,1.51,0,0,1,1.24,1.74c-3.43,20.38-.09,30.81-.06,30.91a1.51,1.51,0,0,1-.61,1.75C544,425.91,536.18,427.92,529.87,427.92Z" fill="#477e98"/><path d="M470.87,315.58a1.5,1.5,0,0,1-1.46-1.14L467,305.3a1.51,1.51,0,0,1,2.93-.76l2.36,9.15a1.5,1.5,0,0,1-1.08,1.84A1.73,1.73,0,0,1,470.87,315.58Z" fill="#477e98"/><path d="M562,391.76a6.79,6.79,0,0,1-6.39-8.19,5.6,5.6,0,0,1-3.85-2.08,5.75,5.75,0,0,1-.7-5.31,6.68,6.68,0,0,1-3.16-5.51,6.79,6.79,0,0,1,4.72-6.29,1.51,1.51,0,0,1,.91,2.89,3.81,3.81,0,0,0-2.61,3.4,3.76,3.76,0,0,0,2.69,3.39,1.51,1.51,0,0,1,.68,2.47,2.69,2.69,0,0,0-.13,3.11,2.75,2.75,0,0,0,3.15.72,1.51,1.51,0,0,1,1.9,2.17,4.32,4.32,0,0,0-.37,4,3.61,3.61,0,0,0,3.16,2.18,2.69,2.69,0,0,0,2.6-2,1.51,1.51,0,1,1,3,.52A5.69,5.69,0,0,1,562,391.76Z" fill="#477e98"/><path d="M542.75,372.5a11.72,11.72,0,0,1-11.13-8.06,1.51,1.51,0,1,1,2.89-.89,8.72,8.72,0,0,0,8.24,5.93,1.51,1.51,0,0,1,0,3Z" fill="#477e98"/><path d="M366.71,254.57H315.17a1.52,1.52,0,1,1,0-3h51.54a1.52,1.52,0,0,1,0,3Z" fill="#c7eef9"/><path d="M424.82,266.3H315.17a1.52,1.52,0,1,1,0-3H424.82a1.52,1.52,0,0,1,0,3Z" fill="#c7eef9"/><path d="M443.22,332H264.91a3.59,3.59,0,0,1-3.55-3.55V291a3.58,3.58,0,0,1,3.55-3.55H443.32a3.58,3.58,0,0,1,3.55,3.55v37.45A3.67,3.67,0,0,1,443.22,332Z" fill="#fff"/><circle cx="286.87" cy="310.41" r="13.77" fill="#c7eef9"/><path d="M409.21,306.43h-94a1.51,1.51,0,1,1,0-3h94a1.51,1.51,0,1,1,0,3Z" fill="#c7eef9"/><path d="M358.42,318.16H315.17a1.51,1.51,0,1,1,0-3h43.25a1.51,1.51,0,0,1,0,3Z" fill="#c7eef9"/><path d="M463.55,320.85a1.51,1.51,0,0,1-1.31-.76c-.84-1.48-3.85-5.69-6.54-5.69s-5.45-1.69-7.56-4.39a14.38,14.38,0,0,1-2.52-12.46,1.52,1.52,0,0,1,2.94.75,11.2,11.2,0,0,0,2,9.85c1.73,2.22,3.84,3.22,5.17,3.22,4.93,0,8.75,6.48,9.17,7.22a1.51,1.51,0,0,1-.57,2.06A1.46,1.46,0,0,1,463.55,320.85Z" fill="#477e98"/><path d="M583.21,235.22a1.16,1.16,0,0,1-.83-.34l-9.15-8.71a1.21,1.21,0,0,1,1.67-1.75l9.14,8.71a1.2,1.2,0,0,1,.05,1.71A1.22,1.22,0,0,1,583.21,235.22Z" fill="#fff"/><path d="M574.28,235.43a1.21,1.21,0,0,1-.88-2l8.61-9.14a1.21,1.21,0,0,1,1.76,1.66l-8.61,9.14A1.18,1.18,0,0,1,574.28,235.43Z" fill="#fff"/><path d="M445.58,154.69a2.79,2.79,0,1,1,2.79-2.78A2.79,2.79,0,0,1,445.58,154.69Zm0-3.63a.85.85,0,1,0,.85.85A.85.85,0,0,0,445.58,151.06Z" fill="#d1f0fc"/><rect x="249.1" y="171.38" width="207.79" height="30.02" fill="#fff" opacity="0.26" style="isolation:isolate"/><path d="M374.35,549.92h-38.2a7.95,7.95,0,1,1,0-15.9h38.2a8.06,8.06,0,0,1,7.95,8,7.59,7.59,0,0,1-2.18,5.51A8.06,8.06,0,0,1,374.35,549.92Zm-38.2-12.27a4.32,4.32,0,0,0,0,8.64h38.2a4.4,4.4,0,0,0,3.16-1.33,4,4,0,0,0,1.16-2.93,4.39,4.39,0,0,0-4.32-4.38Z" fill="#d1f0fc"/><circle cx="471.95" cy="267.58" r="37.88" fill="#ff8f6c"/><path d="M462.15,248.64a2.21,2.21,0,0,1,1.19.11c.32.22.75.43.86.86l3.55,8.39a4,4,0,0,1,.11,1.19,1.47,1.47,0,0,1-.65,1l-2.69,2.26a3.09,3.09,0,0,0-.75,3.65,36,36,0,0,0,4.19,5.6,25,25,0,0,0,5.71,4.3,2.87,2.87,0,0,0,3.66-.75l2.15-2.69a1.41,1.41,0,0,1,1-.64,1.88,1.88,0,0,1,1.07.1l8.4,3.55a1.18,1.18,0,0,1,.86.86,1.55,1.55,0,0,1,.1,1.19l-1.82,7.75a1.17,1.17,0,0,1-.65,1.07,2.33,2.33,0,0,1-1.08.32A34.5,34.5,0,0,1,469.9,282a34.12,34.12,0,0,1-12.37-12.37,33.69,33.69,0,0,1-4.74-17.44,2,2,0,0,1,.33-1.07c.21-.33.64-.43,1.07-.65Z" fill="#fff"/><rect x="249.1" y="445.77" width="207.79" height="77.69" fill="#fff" opacity="0.26" style="isolation:isolate"/><circle cx="361.44" cy="457.72" r="3.12" fill="#51d68a"/><circle cx="375.96" cy="457.72" r="3.12" fill="#1fc8fc"/><circle cx="346.8" cy="457.72" r="3.12" fill="#ffdb80"/><circle cx="332.17" cy="457.72" r="3.12" fill="#ff9b78"/><path d="M435.9,508.19H417.07a7.91,7.91,0,0,1-7.86-7.86V481.5a7.91,7.91,0,0,1,7.86-7.86H435.9a7.9,7.9,0,0,1,7.85,7.86v18.83A7.9,7.9,0,0,1,435.9,508.19Z" fill="#fff"/><path d="M387.69,508.19H368.86a7.9,7.9,0,0,1-7.85-7.86V481.5a7.9,7.9,0,0,1,7.85-7.86h18.83a7.91,7.91,0,0,1,7.86,7.86v18.83A8,8,0,0,1,387.69,508.19Z" fill="#fff"/><path d="M339.38,508.19H320.55a7.91,7.91,0,0,1-7.86-7.86V481.5a7.91,7.91,0,0,1,7.86-7.86h18.83a7.9,7.9,0,0,1,7.85,7.86v18.83A7.9,7.9,0,0,1,339.38,508.19Z" fill="#fff"/><path d="M291.17,508.19H272.34a7.91,7.91,0,0,1-7.86-7.86V481.5a7.91,7.91,0,0,1,7.86-7.86h18.83A7.9,7.9,0,0,1,299,481.5v18.83A7.9,7.9,0,0,1,291.17,508.19Z" fill="#fff"/><path d="M289.77,453.2c-.64,4.3,1.83,8.93,3.66,11.73a1.7,1.7,0,0,1-1.61,2.58c-11.41-1.4-19.7-9.79-22.92-14.2" fill="#1fc8fc"/><path d="M280.19,455.24H236.08a27,27,0,0,1-27-27V406.82a27,27,0,0,1,27-27h44.11a27,27,0,0,1,27,27v21.42A27.09,27.09,0,0,1,280.19,455.24Z" fill="#1fc8fc"/><path d="M258.14,422.1a5.45,5.45,0,0,1-2.7-1,26.42,26.42,0,0,1-2.58-1.83l-.86-.64c-6.67-4.84-11.3-8.18-13.66-10.12l-.65-.32a1.93,1.93,0,0,1-.75-1.61v-2.69h0a4.19,4.19,0,0,1,3.87-2.8h35a4.19,4.19,0,0,1,2.8,3.87v1.62a2,2,0,0,1-.75,1.61l-.33.32c-2.26,1.83-6.88,5.17-13.77,10.12l-.86.64c-1.08.86-1.94,1.4-2.58,1.83A3,3,0,0,1,258.14,422.1Zm20-9.36c-1.94,1.61-6.13,4.63-12.59,9.15l-.86.64a18,18,0,0,1-3.12,2.15,7.33,7.33,0,0,1-3.66,1.08,7.65,7.65,0,0,1-3.66-1.08,20.42,20.42,0,0,1-3.12-2.15l-.86-.75c-6.56-4.84-10.76-7.86-12.59-9.15a.32.32,0,0,0-.43,0c-.22.11-.22.22-.22.43v17.76h0c.87,1.83,2.16,2.8,3.88,2.8h35c1.83-.87,2.8-2.16,2.8-3.88V413.17a.57.57,0,0,0-.22-.43C278.58,412.52,278.36,412.63,278.15,412.74Z" fill="#fff"/><polygon points="207.24 386.92 212.19 378.63 228.76 375.62 226.71 379.7 218 386.27 207.24 393.91 207.24 386.92" fill="#fff"/><path d="M178.18,340.64s-8.82,6.68-17.64,0L145,354s-15.49,7.75,2.15,28.84l3.23,3-1.07,28s33.14,13.34,49.71-4.52l-.43-10,10.44-3s-3.23-9.8.64-16.79l-.64-6.67-9.9-22.17C199.28,350.54,198.2,343.87,178.18,340.64Z" fill="#ffdb80"/><path d="M135.14,545.31l-3.23,14.42s14.42,9.9,21.09,8.82l4.52-1.07s-5.59-9.9-9.9-14.42v-5.6Z" fill="#fff"/><path d="M176,545.31l2.15,20,26.48-1.07s-3.23-14.42-16.58-12.27v-5.59Z" fill="#fff"/><path d="M149.45,413.6s29.92,13.34,50.9-4.52c0,0,4.52,36.59,0,62l-6.67,73s-12.27,5.59-22.17,0c0,0,2.8-81.35,2.8-88l-3.23,2.26S150,530.14,152.36,545.63c0,0-13.34,3.23-20-2.15l9.9-90.71Z" fill="#fff"/><path d="M181,300.19s-11.62-7.11-21.52,1.72l-5,11.62,1.72,7.1s-5.59-3.23-6.67-4.52c-1.07-1.08,1.08,1.08,1.08,1.08s-7.75-9.9-1.08-16.57,18.72-15.5,32.07-3.23c0,0,3.23,4.52,3.23,7.75l-2.16-1.08Z" fill="#fff" opacity="0.92" style="isolation:isolate"/><path d="M182.7,304.06l-2.15-5.6s-15.49-3.22-21.09,5.6c0,0-2.15,8.82-9.9,13.34,0,0-4.52,11,7.75,11l3.23,4.52v7.74s9.9,6.68,17.64,0l.65-3.87s9.9-2.15,7.75-22.17C186.58,314.6,193.25,302.44,182.7,304.06Z" fill="#fff"/><path d="M183.77,317.61c-3.21,0-6.13-2.82-6.71-6.67-.62-4.17,1.74-8,5.27-8.52h0c3.52-.52,6.9,2.44,7.52,6.61s-1.74,8-5.27,8.52A5.52,5.52,0,0,1,183.77,317.61Zm-1-12.2c-1.87.28-3.09,2.56-2.71,5.08s2.23,4.35,4.08,4.06,3.09-2.55,2.72-5.07-2.21-4.35-4.09-4.07Z" fill="#477e98"/><path d="M167.32,320c-3.22,0-6.14-2.82-6.71-6.67-.62-4.17,1.74-8,5.26-8.51h0c3.53-.53,6.9,2.44,7.52,6.61a8.35,8.35,0,0,1-1,5.49,6,6,0,0,1-4.28,3A5.52,5.52,0,0,1,167.32,320Zm-1-12.19c-1.87.28-3.09,2.56-2.72,5.08s2.23,4.35,4.08,4.06a3,3,0,0,0,2.12-1.56,5.41,5.41,0,0,0,.6-3.52c-.37-2.47-2.23-4.34-4.08-4.06Z" fill="#477e98"/><path d="M172.37,313.64a1.51,1.51,0,0,1-.32-3l5.92-1.29a1.51,1.51,0,1,1,.64,3l-5.91,1.29Z" fill="#477e98"/><path d="M173.91,329.33a11.41,11.41,0,0,1-5.87-1.81,1.51,1.51,0,0,1,1.56-2.59c4.77,2.86,7.52.32,7.64.21a1.51,1.51,0,0,1,2.12,2.16A8,8,0,0,1,173.91,329.33Z" fill="#477e98"/><path d="M156,330.11a8.73,8.73,0,0,1-8-4.65,7.8,7.8,0,0,1,.33-7.53,14.94,14.94,0,0,1-2.28-9.65c.66-5.22,3.42-14.41,14.59-17.2,15.55-3.89,21.44,5.88,21.69,6.3a1.51,1.51,0,1,1-2.62,1.52c-.19-.33-5.07-8.2-18.34-4.89-9.42,2.36-11.76,10.19-12.31,14.65a12.21,12.21,0,0,0,2.32,8.42,1.52,1.52,0,0,1,0,1.77,4.89,4.89,0,0,0-.64,5.26,5.72,5.72,0,0,0,5.24,3,1.52,1.52,0,0,1,0,3Z" fill="#477e98"/><path d="M154.4,315a1.55,1.55,0,0,1-1.07-.44,1.51,1.51,0,0,1,0-2.14c3-3,4.75-10.09,4.77-10.16a1.5,1.5,0,0,1,.42-.73c6.48-6.25,15.11-5.09,15.47-5a1.51,1.51,0,0,1-.43,3h0c-.07,0-7.27-.95-12.64,3.93-.46,1.74-2.3,8-5.45,11.14A1.51,1.51,0,0,1,154.4,315Z" fill="#477e98"/><path d="M170.48,345.09a22.36,22.36,0,0,1-10.09-2.66,1.51,1.51,0,0,1-.83-1.35v-8.83a1.52,1.52,0,0,1,2.77-.85c3.91,5.78,13.85,3.91,13.95,3.89l1-.28a1.55,1.55,0,0,1,1.06-.4c9.29-4,6.78-17,6.66-17.55a1.51,1.51,0,0,1,3-.61c1.18,5.74.75,16.75-8.15,20.81v3.82a1.47,1.47,0,0,1-.49,1.11A13.55,13.55,0,0,1,170.48,345.09Zm-7.89-5c7.83,3.63,12.69,1.19,14.19.19v-2.05c-1.22.22-8.91,1.4-14.19-2.35Z" fill="#477e98"/><path d="M209.82,378.42a1.51,1.51,0,0,1-1.39-.92l-10.87-25.39a11.31,11.31,0,0,0-7.58-6.55l-11.52-2.91a1.51,1.51,0,1,1,.74-2.93l11.51,2.9a14.37,14.37,0,0,1,9.63,8.28l10.87,25.41a1.52,1.52,0,0,1-.79,2A1.61,1.61,0,0,1,209.82,378.42Z" fill="#477e98"/><path d="M182.57,548.19a37.88,37.88,0,0,1-12.19-2.09,1.51,1.51,0,0,1-1-1.54c0-.79,5.54-78.46,2.19-91.41a1.51,1.51,0,1,1,2.93-.76c3.28,12.68-1.31,80.94-2,91.2,9.72,3,16.79.93,19.08.06.14-3.78,1-19,6.67-62.24,6.55-49.88-.87-81.67-.94-82a1.51,1.51,0,1,1,2.94-.71c.07.32,7.63,32.6,1,83.08-6.56,50.08-6.65,62.74-6.65,62.86a1.51,1.51,0,0,1-.83,1.35A26.05,26.05,0,0,1,182.57,548.19ZM193,544.66h0Z" fill="#477e98"/><path d="M170,444.38a1.51,1.51,0,1,1,0-3c8.16,0,16.56-7.3,16.65-7.38a1.51,1.51,0,0,1,2,2.28C188.27,436.59,179.29,444.38,170,444.38Z" fill="#477e98"/><path d="M202.5,566.08H177.75a1.51,1.51,0,0,1-1.51-1.51V546.71a1.52,1.52,0,0,1,3,0v16.35H202.5a.84.84,0,0,0,.74-.45.82.82,0,0,0-.06-.86c-5.26-7.8-14.36-7.93-14.45-7.93a1.52,1.52,0,0,1-1.51-1.52v-6a1.51,1.51,0,0,1,3,0v4.61a21.58,21.58,0,0,1,15.45,9.18,3.79,3.79,0,0,1,.22,4A3.86,3.86,0,0,1,202.5,566.08Z" fill="#477e98"/><path d="M153.86,570.2a4.73,4.73,0,0,1-.65,0c-7-1-16.53-3.42-21.93-8.82a1.52,1.52,0,0,1-.43-1.3L133,545.62a1.53,1.53,0,0,1,1.72-1.27,1.51,1.51,0,0,1,1.27,1.72l-2,13.64c5.2,4.7,14.5,6.68,19.7,7.45a1.41,1.41,0,0,0,1.32-.54,1.22,1.22,0,0,0,.18-1.25,20.11,20.11,0,0,0-9-10.29,1.52,1.52,0,0,1-.85-1.66l1.07-5.6a1.52,1.52,0,0,1,3,.57l-.87,4.51a23.41,23.41,0,0,1,9.5,11.32,4.23,4.23,0,0,1-.59,4.26A4.47,4.47,0,0,1,153.86,570.2Z" fill="#477e98"/><path d="M142.89,556.46a21.17,21.17,0,0,1-9.27-2.37,1.51,1.51,0,1,1,1.32-2.72c7.27,3.54,11.38,1.52,11.55,1.43a1.51,1.51,0,0,1,2,.63,1.5,1.5,0,0,1-.6,2A11.13,11.13,0,0,1,142.89,556.46Z" fill="#477e98"/><path d="M182.56,557.12a19.49,19.49,0,0,1-5.32-.78,1.5,1.5,0,0,1-1.05-1.86,1.52,1.52,0,0,1,1.87-1.05c7.71,2.16,11.33-1.65,11.48-1.82a1.52,1.52,0,0,1,2.26,2C191.64,553.81,188.62,557.12,182.56,557.12Z" fill="#477e98"/><path d="M173,420.64c-6.78,0-14.85-1.34-24.28-5a1.52,1.52,0,0,1-1-1.53l2.15-27.33a1.51,1.51,0,0,1,3,.23l-2.06,26.21c32.3,12,47.1-4.44,47.72-5.15a1.51,1.51,0,0,1,2.29,2C200.36,410.64,191.47,420.64,173,420.64Z" fill="#477e98"/><path d="M145.73,548.86c-3.49,0-8.18-.87-14.06-3.81a1.52,1.52,0,0,1-.83-1.55c.07-.52,6.68-52.23,7.74-69.62l4-35.2c.34-15.83,4.82-24.75,5-25.12a1.51,1.51,0,1,1,2.69,1.37h0c0,.09-4.36,8.76-4.67,23.88,0,.05,0,.09,0,.14l-4,35.19c-1,16-6.66,61.11-7.62,68.67,9.28,4.36,14.89,2.91,16.8,2.13-.94-20.13,16.6-78.2,22.43-97.51.77-2.54,1.32-4.37,1.58-5.3a1.51,1.51,0,0,1,2.91.83c-.26.94-.82,2.78-1.59,5.34-5.9,19.52-23.83,78.9-22.24,97.42a1.54,1.54,0,0,1-.66,1.38C153,547.22,150.52,548.85,145.73,548.86Z" fill="#477e98"/><path d="M220.8,377.66l1.72-2.8s0-7.74,11-2.15l5.6,1.08,3.23,6.67-3.23,2.15H222.52" fill="#fff"/><path d="M233.31,385.22a55.74,55.74,0,0,1-9.66-1,4.33,4.33,0,0,1-3.6-4.73,32,32,0,0,1,1.7-6.13,7.48,7.48,0,0,1,2.7-3.71c3.8-2.82,7.92-.45,10,.76l5.73,2.54a6.31,6.31,0,0,1,3.61,6.48,6.07,6.07,0,0,1-5,5.21A22.3,22.3,0,0,1,233.31,385.22Zm-4.9-13.87a3.54,3.54,0,0,0-2.19.75,4.47,4.47,0,0,0-1.63,2.31A28.08,28.08,0,0,0,223,380c-.08.55.45,1.13,1.19,1.29,2.22.4,9.1,1.65,13.84.44a3.11,3.11,0,0,0,2.67-2.65,3.24,3.24,0,0,0-1.9-3.35l-5.75-2.56-.15-.08A9.66,9.66,0,0,0,228.41,371.35Z" fill="#477e98"/><path d="M226.39,384.66a1.72,1.72,0,0,1-.44-.06,1.52,1.52,0,0,1-1-1.89l1.94-6.35a1.52,1.52,0,1,1,2.9.88l-1.94,6.35A1.52,1.52,0,0,1,226.39,384.66Z" fill="#477e98"/><path d="M208.42,385.52a1.51,1.51,0,0,1-1.41-2.06c1.11-2.87,3.73-9.57,14.47-9.36a1.52,1.52,0,0,1,1.47,1.55,1.5,1.5,0,0,1-1.54,1.48c-8-.2-10.15,3.74-11.58,7.43A1.51,1.51,0,0,1,208.42,385.52Z" fill="#477e98"/><path d="M212.83,393.37a1.52,1.52,0,0,1-.42-.06,1.5,1.5,0,0,1-1-1.86c.06-.23,1.68-5.69,9.48-8.94A1.51,1.51,0,1,1,222,385.3c-6.36,2.66-7.68,6.81-7.73,7A1.54,1.54,0,0,1,212.83,393.37Z" fill="#477e98"/><path d="M195.83,385.63a1.51,1.51,0,0,1-1.49-1.27L191,363.59a1.51,1.51,0,0,1,3-.48l3.34,20.77a1.51,1.51,0,0,1-1.26,1.73Z" fill="#477e98"/><path d="M175.7,407a12.37,12.37,0,0,1-8.08-3A266,266,0,0,1,147.92,385c-7.18-7.65-10.52-14.82-9.9-21.32a14.5,14.5,0,0,1,5.27-10l16.85-13.3A1.51,1.51,0,0,1,162,342.8l-16.89,13.34a11.42,11.42,0,0,0-4.09,7.93c-.5,5.58,2.56,11.94,9.1,18.9a261.25,261.25,0,0,0,19.46,18.72,9.53,9.53,0,0,0,9.2,1.76l2.12-.74a145,145,0,0,1,13.92-4.35l12.1-3.46c2.7-5.94-1-9.35-2.43-10.43-5,1.26-25.18,4.33-27.6,4.69a1.51,1.51,0,0,1-1.39-.53l-15.6-18.83a1.51,1.51,0,0,1,2.33-1.93L177.3,386c7.43-1.13,24.54-3.83,27-4.65a1.49,1.49,0,0,1,1.24.13c3.11,1.81,7.91,7.35,3.82,15.34a1.5,1.5,0,0,1-.93.76l-12.81,3.66c-4.64,1.12-9.24,2.73-13.69,4.28l-2.15.75A13.1,13.1,0,0,1,175.7,407Z" fill="#477e98"/><path d="M444.83,193.12h-6.56a.62.62,0,0,1-.65-.65V181.6a.62.62,0,0,1,.65-.64h6.56a.62.62,0,0,1,.65.64v11A.7.7,0,0,1,444.83,193.12Z" fill="#fff"/><path d="M442.46,182.14h-1.93a.62.62,0,0,1-.65-.64v-1.29a.62.62,0,0,1,.65-.65h1.93a.62.62,0,0,1,.65.65v1.29A.57.57,0,0,1,442.46,182.14Z" fill="#fff"/><path d="M445.37,183.65v9.15a.62.62,0,0,1-.65.64h-6.56a.62.62,0,0,1-.65-.64v-9.15" fill="#fff"/><path d="M415.24,193.12h11.62a.47.47,0,0,0,.43-.43V182.14a.44.44,0,0,0-.75-.32l-11.62,10.55A.47.47,0,0,0,415.24,193.12Z" fill="#fff"/><path d="M396.62,183.65a1,1,0,0,0-.1,1.29l3.22,3.66,3.23,3.55a1,1,0,0,0,1.29,0l3.23-3.55,3.23-3.55a.89.89,0,0,0-.11-1.29C404.48,178.27,398.67,182,396.62,183.65Z" fill="#fff"/></svg>